<mxfile host="app.diagrams.net" modified="2023-05-26T05:01:41.662Z" agent="Mozilla/5.0 (Windows NT 10.0; Win64; x64) AppleWebKit/537.36 (KHTML, like Gecko) Chrome/113.0.0.0 Safari/537.36" etag="QH9fU_cw89U2sy-Wkx3d" version="21.3.2" type="device">
  <diagram name="페이지-1" id="wsmQ1aC9qhE5_pbdgPmv">
    <mxGraphModel dx="2390" dy="1165" grid="1" gridSize="10" guides="1" tooltips="1" connect="1" arrows="1" fold="1" page="1" pageScale="1" pageWidth="4681" pageHeight="3300" math="0" shadow="0">
      <root>
        <mxCell id="0" />
        <mxCell id="1" parent="0" />
        <mxCell id="k2WsUIv_nSECYckXhPB7-8" style="rounded=0;orthogonalLoop=1;jettySize=auto;html=1;entryX=0.5;entryY=0;entryDx=0;entryDy=0;exitX=0.5;exitY=1;exitDx=0;exitDy=0;" edge="1" parent="1" source="k2WsUIv_nSECYckXhPB7-1" target="k2WsUIv_nSECYckXhPB7-3">
          <mxGeometry relative="1" as="geometry" />
        </mxCell>
        <mxCell id="k2WsUIv_nSECYckXhPB7-9" style="rounded=0;orthogonalLoop=1;jettySize=auto;html=1;entryX=0.5;entryY=0;entryDx=0;entryDy=0;exitX=0.5;exitY=1;exitDx=0;exitDy=0;" edge="1" parent="1" source="k2WsUIv_nSECYckXhPB7-1" target="k2WsUIv_nSECYckXhPB7-6">
          <mxGeometry relative="1" as="geometry" />
        </mxCell>
        <mxCell id="k2WsUIv_nSECYckXhPB7-10" style="edgeStyle=none;shape=connector;rounded=0;orthogonalLoop=1;jettySize=auto;html=1;labelBackgroundColor=default;strokeColor=default;fontFamily=Helvetica;fontSize=11;fontColor=default;endArrow=classic;exitX=0.5;exitY=1;exitDx=0;exitDy=0;" edge="1" parent="1" source="k2WsUIv_nSECYckXhPB7-1" target="k2WsUIv_nSECYckXhPB7-4">
          <mxGeometry relative="1" as="geometry" />
        </mxCell>
        <mxCell id="k2WsUIv_nSECYckXhPB7-11" style="edgeStyle=none;shape=connector;rounded=0;orthogonalLoop=1;jettySize=auto;html=1;labelBackgroundColor=default;strokeColor=default;fontFamily=Helvetica;fontSize=11;fontColor=default;endArrow=classic;exitX=0.5;exitY=1;exitDx=0;exitDy=0;" edge="1" parent="1" source="k2WsUIv_nSECYckXhPB7-1" target="k2WsUIv_nSECYckXhPB7-5">
          <mxGeometry relative="1" as="geometry" />
        </mxCell>
        <mxCell id="k2WsUIv_nSECYckXhPB7-12" style="edgeStyle=none;shape=connector;rounded=0;orthogonalLoop=1;jettySize=auto;html=1;labelBackgroundColor=default;strokeColor=default;fontFamily=Helvetica;fontSize=11;fontColor=default;endArrow=classic;exitX=0.5;exitY=1;exitDx=0;exitDy=0;" edge="1" parent="1" source="k2WsUIv_nSECYckXhPB7-1" target="k2WsUIv_nSECYckXhPB7-7">
          <mxGeometry relative="1" as="geometry" />
        </mxCell>
        <mxCell id="k2WsUIv_nSECYckXhPB7-1" value="&lt;span style=&quot;font-size: 24px;&quot;&gt;MEMO&lt;/span&gt;" style="rounded=1;arcSize=10;whiteSpace=wrap;html=1;align=center;" vertex="1" parent="1">
          <mxGeometry x="600" y="180" width="340" height="130" as="geometry" />
        </mxCell>
        <mxCell id="k2WsUIv_nSECYckXhPB7-3" value="&lt;font style=&quot;font-size: 24px;&quot;&gt;일련번호&lt;/font&gt;" style="ellipse;whiteSpace=wrap;html=1;align=center;fontStyle=4;" vertex="1" parent="1">
          <mxGeometry x="70" y="680" width="200" height="120" as="geometry" />
        </mxCell>
        <mxCell id="k2WsUIv_nSECYckXhPB7-4" value="&lt;font style=&quot;font-size: 24px;&quot;&gt;작성일자&lt;/font&gt;" style="ellipse;whiteSpace=wrap;html=1;align=center;" vertex="1" parent="1">
          <mxGeometry x="620" y="680" width="190" height="120" as="geometry" />
        </mxCell>
        <mxCell id="k2WsUIv_nSECYckXhPB7-5" value="&lt;font style=&quot;font-size: 24px;&quot;&gt;제목&lt;/font&gt;" style="ellipse;whiteSpace=wrap;html=1;align=center;" vertex="1" parent="1">
          <mxGeometry x="920" y="680" width="190" height="120" as="geometry" />
        </mxCell>
        <mxCell id="k2WsUIv_nSECYckXhPB7-6" value="&lt;font style=&quot;font-size: 24px;&quot;&gt;작성자&lt;/font&gt;" style="ellipse;whiteSpace=wrap;html=1;align=center;" vertex="1" parent="1">
          <mxGeometry x="350" y="680" width="190" height="120" as="geometry" />
        </mxCell>
        <mxCell id="k2WsUIv_nSECYckXhPB7-7" value="&lt;font style=&quot;font-size: 24px;&quot;&gt;내용&lt;/font&gt;" style="ellipse;whiteSpace=wrap;html=1;align=center;" vertex="1" parent="1">
          <mxGeometry x="1190" y="670" width="190" height="120" as="geometry" />
        </mxCell>
      </root>
    </mxGraphModel>
  </diagram>
</mxfile>
